<svg width="21" height="21" viewBox="0 0 21 21" fill="none" xmlns="http://www.w3.org/2000/svg">
<path d="M19.7176 12.0021H18.7786C18.7786 8.13205 15.8398 5.00205 12.2061 5.00205H11.2672V3.73205C11.5527 3.55647 11.7898 3.30391 11.9546 2.99978C12.1195 2.69564 12.2062 2.35065 12.2061 1.99949C12.206 1.64833 12.1191 1.30338 11.9542 0.999334C11.7892 0.695288 11.552 0.442861 11.2663 0.267437C10.9807 0.0920125 10.6568 -0.000224653 10.327 4.10891e-07C9.99732 0.000225475 9.67348 0.0929049 9.38806 0.268719C9.10265 0.444533 8.86573 0.697283 8.70113 1.00155C8.53652 1.30583 8.45004 1.65089 8.45038 2.00205C8.45038 2.74205 8.82595 3.39205 9.38931 3.73205V5.00205H8.45038C4.81672 5.00205 1.87786 8.13205 1.87786 12.0021H0.938931C0.422519 12.0021 0 12.4521 0 13.0021V16.0021C0 16.5521 0.422519 17.0021 0.938931 17.0021H1.87786V18.0021C1.87786 18.5325 2.07571 19.0412 2.42788 19.4163C2.78004 19.7913 3.25769 20.0021 3.75573 20.0021H16.9008C17.943 20.0021 18.7786 19.1121 18.7786 18.0021V17.0021H19.7176C20.234 17.0021 20.6565 16.5521 20.6565 16.0021V13.0021C20.6565 12.4521 20.234 12.0021 19.7176 12.0021ZM7.21099 15.0421L6.10305 13.8621L4.99511 15.0421L3.88718 13.8621L6.10305 11.5021L8.31893 13.8621L7.21099 15.0421ZM15.6614 15.0421L14.5534 13.8621L13.4455 15.0421L12.3376 13.8621L14.5534 11.5021L16.7693 13.8621L15.6614 15.0421Z" fill="black"/>
</svg>
