<svg width="18" height="19" viewBox="0 0 18 19" fill="none" xmlns="http://www.w3.org/2000/svg">
<path d="M8.76336 9.33333C7.5584 9.33333 6.52688 8.87639 5.6688 7.9625C4.81072 7.04861 4.38168 5.95 4.38168 4.66667C4.38168 3.38333 4.81072 2.28472 5.6688 1.37083C6.52688 0.456945 7.5584 0 8.76336 0C9.96832 0 10.9998 0.456945 11.8579 1.37083C12.716 2.28472 13.145 3.38333 13.145 4.66667C13.145 5.95 12.716 7.04861 11.8579 7.9625C10.9998 8.87639 9.96832 9.33333 8.76336 9.33333ZM0 18.6667V15.4C0 14.7389 0.159932 14.1311 0.479794 13.5765C0.798926 13.0227 1.22322 12.6 1.75267 12.3083C2.88461 11.7056 4.0348 11.2533 5.20324 10.9515C6.37169 10.6505 7.5584 10.5 8.76336 10.5C9.96832 10.5 11.155 10.6505 12.3235 10.9515C13.4919 11.2533 14.6421 11.7056 15.774 12.3083C16.3035 12.6 16.7278 13.0227 17.0469 13.5765C17.3668 14.1311 17.5267 14.7389 17.5267 15.4V18.6667H0Z" fill="black"/>
</svg>
