<svg width="22" height="25" viewBox="0 0 22 25" fill="none" xmlns="http://www.w3.org/2000/svg">
<path d="M10 5.5C10 8.53757 7.76142 11 5 11C2.23858 11 0 8.53757 0 5.5C0 2.46243 2.23858 0 5 0C7.76142 0 10 2.46243 10 5.5Z" fill="black"/>
<path d="M22 5.5C22 8.53757 19.7614 11 17 11C14.2386 11 12 8.53757 12 5.5C12 2.46243 14.2386 0 17 0C19.7614 0 22 2.46243 22 5.5Z" fill="black"/>
<path d="M10.9995 16.6302C9.47256 16.6302 8.45437 16.6305 5.40046 14.365C3.36446 12.6657 -1.72486 17.1972 2.856 21.728C5.39467 24.2389 11 23.9934 11 23.9934" stroke="black" stroke-width="2"/>
<path d="M11.0005 16.6302C12.5274 16.6302 13.5456 16.6305 16.5995 14.365C18.6355 12.6657 23.7249 17.1972 19.144 21.728C16.6053 24.2389 11 23.9934 11 23.9934" stroke="black" stroke-width="2"/>
</svg>
